<?xml version="1.0" standalone="no"?>
<!DOCTYPE svg PUBLIC "-//W3C//DTD SVG 20010904//EN"
 "http://www.w3.org/TR/2001/REC-SVG-20010904/DTD/svg10.dtd">
<svg version="1.0" xmlns="http://www.w3.org/2000/svg"
 width="260.000000pt" height="260.000000pt" viewBox="0 0 260.000000 260.000000"
 preserveAspectRatio="xMidYMid meet">
<metadata>
Created by potrace 1.11, written by Peter Selinger 2001-2013
</metadata>
<g transform="translate(0.000000,260.000000) scale(0.100000,-0.100000)"
fill="#ff471a" stroke="none">
<path d="M1581 1765 c-674 -675 -684 -685 -705 -668 -33 28 -131 120 -235 220
-53 51 -101 93 -107 93 -6 0 -24 -12 -41 -27 -16 -16 -69 -64 -118 -108 -49
-44 -96 -87 -105 -95 -9 -8 -26 -24 -38 -34 l-22 -19 0 426 0 427 651 0 652 0
41 34 c23 19 75 66 116 105 l75 70 -872 1 -873 0 0 -900 0 -900 895 0 895 0 0
521 0 521 -31 -33 c-17 -19 -64 -69 -105 -111 l-74 -77 0 -306 0 -305 -685 0
-685 0 0 113 c0 103 2 114 22 131 12 10 67 60 122 110 163 147 168 151 176
151 7 0 101 -86 299 -272 36 -35 68 -63 71 -63 3 0 383 378 844 840 l838 840
-159 0 -159 0 -683 -685z"/>
</g>
</svg>
